<svg xmlns="http://www.w3.org/2000/svg" viewBox="0 0 442 100" width="145" height="33" role="img" aria-label="Crasec">
  <title>Crasec</title>
  <path d="M28,4 H68 L96,32 V84 A12,12 0 0 1 84,96 H16 A12,12 0 0 1 4,84 V16 A12,12 0 0 1 16,4 Z" fill="#0066CC"/>
  <path d="M68,4 L96,32 L68,32 Z" fill="#7CB0EA"/>
  <path d="M153.573 76.11Q147.203 76.11 142.4255 73.6985Q137.648 71.287 135.00900000000001 66.8735Q132.37 62.46 132.37 56.45400000000001V43.896Q132.37 37.79900000000001 135.00900000000001 33.431000000000004Q137.648 29.063000000000002 142.4255 26.651500000000002Q147.203 24.240000000000002 153.573 24.240000000000002Q163.037 24.240000000000002 168.679 29.108500000000003Q174.321 33.977000000000004 174.594 42.349000000000004H163.219Q162.946 38.43600000000001 160.4435 36.29750000000001Q157.941 34.159000000000006 153.573 34.159000000000006Q149.023 34.159000000000006 146.38400000000001 36.661500000000004Q143.745 39.164 143.745 43.80500000000001V56.45400000000001Q143.745 61.095 146.38400000000001 63.643Q149.023 66.191 153.573 66.191Q157.941 66.191 160.4435 64.05250000000001Q162.946 61.914 163.219 58.001000000000005H174.594Q174.321 66.373 168.679 71.2415Q163.037 76.11 153.573 76.11ZM187.154 75.2V25.150000000000006H197.892V34.705000000000005H200.713L197.346 40.529Q197.346 32.43000000000001 200.986 28.335000000000004Q204.626 24.240000000000002 211.724 24.240000000000002Q219.82299999999998 24.240000000000002 224.464 29.245000000000005Q229.105 34.25000000000001 229.105 43.077000000000005V46.717H217.184V43.896Q217.184 39.073 214.6815 36.434Q212.179 33.795 207.81099999999998 33.795Q203.352 33.795 200.9405 36.434Q198.529 39.073 198.529 43.896V75.2ZM252.94899999999998 76.11Q245.214 76.11 240.755 72.015Q236.296 67.92 236.296 61.004000000000005Q236.296 53.633 241.20999999999998 49.629000000000005Q246.124 45.625 255.13299999999998 45.625H267.59999999999997V41.348000000000006Q267.59999999999997 37.708000000000006 265.234 35.660500000000006Q262.868 33.61300000000001 258.77299999999997 33.61300000000001Q255.04199999999997 33.61300000000001 252.58499999999998 35.251000000000005Q250.128 36.889 249.673 39.71H238.571Q239.39 32.612 244.94099999999997 28.426000000000002Q250.492 24.240000000000002 259.137 24.240000000000002Q268.328 24.240000000000002 273.65149999999994 28.835500000000003Q278.97499999999997 33.431000000000004 278.97499999999997 41.257000000000005V75.2H267.964V66.464H266.144L267.964 64.007Q267.964 69.558 263.869 72.834Q259.774 76.11 252.94899999999998 76.11ZM256.68 67.556Q261.503 67.556 264.5515 65.099Q267.59999999999997 62.642 267.59999999999997 58.729V52.632000000000005H255.315Q251.857 52.632000000000005 249.764 54.634Q247.671 56.636 247.671 59.912000000000006Q247.671 63.461000000000006 250.08249999999998 65.5085Q252.494 67.556 256.68 67.556ZM309.189 76.019Q303.456 76.019 299.179 74.19900000000001Q294.902 72.379 292.4905 69.14850000000001Q290.079 65.918 289.897 61.550000000000004H301.272Q301.454 63.916000000000004 303.5925 65.372Q305.731 66.828 309.189 66.828H313.193Q317.379 66.828 319.472 65.19Q321.565 63.55200000000001 321.565 60.731Q321.565 58.092 319.6995 56.5905Q317.834 55.089 313.921 54.634L307.733 53.724000000000004Q299.17900000000003 52.541000000000004 295.175 49.17400000000001Q291.171 45.807 291.171 39.073Q291.171 32.066 295.903 28.198500000000003Q300.635 24.331000000000003 309.826 24.331000000000003H313.284Q321.656 24.331000000000003 326.661 28.062000000000005Q331.666 31.793000000000006 332.03000000000003 38.072H320.65500000000003Q320.382 36.07000000000001 318.4255 34.79600000000001Q316.469 33.522000000000006 313.284 33.522000000000006H309.826Q305.913 33.522000000000006 304.1385 34.932500000000005Q302.36400000000003 36.343 302.36400000000003 39.073Q302.36400000000003 41.621 303.91100000000006 42.849500000000006Q305.458 44.078 308.916 44.624L315.377 45.534000000000006Q324.295 46.80800000000001 328.52650000000006 50.31150000000001Q332.75800000000004 53.815000000000005 332.75800000000004 60.64Q332.75800000000004 67.92 327.7985 71.96950000000001Q322.839 76.019 313.193 76.019ZM363.79100000000005 76.11Q357.42100000000005 76.11 352.6890000000001 73.65299999999999Q347.95700000000005 71.196 345.36350000000004 66.7825Q342.77000000000004 62.369 342.77000000000004 56.45400000000001V43.896Q342.77000000000004 37.981 345.36350000000004 33.5675Q347.95700000000005 29.154000000000003 352.6890000000001 26.697000000000003Q357.42100000000005 24.240000000000002 363.79100000000005 24.240000000000002Q370.07000000000005 24.240000000000002 374.7565000000001 26.697000000000003Q379.44300000000004 29.154000000000003 382.03650000000005 33.5675Q384.63000000000005 37.981 384.63000000000005 43.896V52.905H353.78100000000006V56.45400000000001Q353.78100000000006 61.732 356.32900000000006 64.4165Q358.877 67.101 363.88200000000006 67.101Q367.704 67.101 370.07000000000005 65.7815Q372.43600000000004 64.462 373.07300000000004 61.914H384.266Q382.992 68.375 377.3955 72.2425Q371.79900000000004 76.11 363.79100000000005 76.11ZM373.619 46.535000000000004V43.80500000000001Q373.619 38.618 371.16200000000003 35.8425Q368.70500000000004 33.06700000000001 363.79100000000005 33.06700000000001Q358.877 33.06700000000001 356.32900000000006 35.888000000000005Q353.78100000000006 38.709 353.78100000000006 43.896V45.807L374.43800000000005 45.625ZM416.57300000000004 76.11Q410.20300000000003 76.11 405.42550000000006 73.6985Q400.6480000000001 71.287 398.00900000000007 66.8735Q395.37000000000006 62.46 395.37000000000006 56.45400000000001V43.896Q395.37000000000006 37.79900000000001 398.00900000000007 33.431000000000004Q400.6480000000001 29.063000000000002 405.42550000000006 26.651500000000002Q410.20300000000003 24.240000000000002 416.57300000000004 24.240000000000002Q426.03700000000003 24.240000000000002 431.67900000000003 29.108500000000003Q437.321 33.977000000000004 437.59400000000005 42.349000000000004H426.21900000000005Q425.946 38.43600000000001 423.44350000000003 36.29750000000001Q420.94100000000003 34.159000000000006 416.57300000000004 34.159000000000006Q412.0230000000001 34.159000000000006 409.38400000000007 36.661500000000004Q406.74500000000006 39.164 406.74500000000006 43.80500000000001V56.45400000000001Q406.74500000000006 61.095 409.38400000000007 63.643Q412.0230000000001 66.191 416.57300000000004 66.191Q420.94100000000003 66.191 423.44350000000003 64.05250000000001Q425.946 61.914 426.21900000000005 58.001000000000005H437.59400000000005Q437.321 66.373 431.67900000000003 71.2415Q426.03700000000003 76.11 416.57300000000004 76.11Z" fill="#0E1220"/>
</svg>
